<?xml version="1.0" encoding="UTF-8"?>
<svg id="Layer_1" xmlns="http://www.w3.org/2000/svg" version="1.1" viewBox="0 0 500 425.76">
  <!-- Generator: Adobe Illustrator 30.1.0, SVG Export Plug-In . SVG Version: 2.1.1 Build 136)  -->
  <g id="gBR1gL">
    <g id="_x31_2hXjo">
      <g>
        <path d="M447.34,263.68c4.93-1.07,8.5-4.67,12.06-7.49,9.32-7.38,20.13-12.02,32.09-10.77,2.94,8.89.17,14.41-4.48,21.07l-4.71-4.21c-2.18,4.44-1.49,8.41-1.79,13.09-1.11,17.25-8.76,32.91-20.36,45.73-11.39,12.57-26.19,20.72-42.5,25.56-10.56,3.14-20.74,6.18-31.77,7.57l-56.35,7.11c-5.35.68-10.96-1.91-16.18-.11l-3.26,8.9-130.34.02c-14.49-38.76-47.65-59.4-88.24-62.64-9.96-.6-17.1.07-27.32.35,5.89-31.97,16.87-61.01,30.3-90.96-1.7-2.78-3.94-5.13-6.15-7.71-6.74-7.88-12.83-15.74-17.94-24.87-8.25-14.76-12.21-31.56-10.47-48.33l1.45-13.94.51-21.53c.62-25.78,9.39-44.68,35.84-51.03,28.3-6.8,39.94-12.98,61.73-31.82,6.64-5.74,13.68-10.5,22-13.32,10.37-3.51,20.48,1.66,24.82,11.5,10.71,24.29,15.17,47.56,13.39,74.13-.46,6.9-2.2,13.61-4.8,19.79-9.93,23.53-41.25-.9-53.01-10.19l-18.1-14.31c3.07,7.05,17.75,22.51,23.12,27.37,8.91,8.06,18.25,15.32,29.56,19.74,9.5,3.71,21.58,3.17,29.11-5.31,9.39-10.57,11.73-26.32,12.83-39.98.37-4.58.29-8.98-.23-13.56l-.76-6.75c50.03,2.01,90.5,26.17,124.74,60.92,2.75,2.79,6.42,4.46,10.04,6.15,8.48,3.96,11.99,15.17,5.92,23.09-7.4,9.65-9.64,21.13-4.03,32.5,4,8.1,11.26,15.97,19.84,19.49,24.84,10.19,44.89,12.29,69.65,21.26-.24.34-.96,1.03-1.27,1.14-10.65,2.98-22.95,5.51-28.49,16.64-1.82,3.66-.51,7.77,2.35,11.11,2.24,2.61,6.95,5.51,11.18,4.59ZM296.15,196.8l-3.84-8.91c7.53-3.33,10.49.4,16.75,2.23-2.53-7.88-10.45-12.51-18.09-12.21s-13.56,3.67-18.8,8.65c-7.46,7.08-10.24,17.86-6.26,27.54,3.65,8.89,12.58,15.16,22.88,15.2,7.36.03,14.42-2.54,18.52-8.74-11.69.68-19.66-3.42-21.27-14.63-.95-6.58,6.12-4.58,10.13-9.12ZM442.45,274.29c5.32,8.55,16.32,9.96,23.17,4.3,4.54-3.98,7.12-9.62,4.05-15.36l-4.31,4.87c-5.92,6.69-14.25,8.37-22.91,6.19Z"/>
        <path d="M106.43,424.94c-7.57-4.29-17-18.87-26.64-8.49-1.46,1.57-3.5,3.26-5.13,4.72-3.25,2.91-6.78,4-11.02,2.38-9.27-3.54-12.82-4.08-19.75-11.1l.66,4.88c-11.41-2.16-22.46-5.03-31.05-12.49-7.17-6.23-11.61-16.1-13.06-25.36-.68-4.34-.47-9.08-.06-13.31,1.55-15.78,14.25-30.27,27.24-38.17,29.83-18.14,71.63-19.49,103.04-4.9,19.5,9.06,37.7,25.29,39.67,47.94,1.11,12.78-3.38,25.46-11.93,34.97-7.26,8.07-19.46,15.07-30.06,11.91l1.98-6.18-10.62,9.84c-3.12,2.89-9.31,5.6-13.26,3.36Z"/>
        <path d="M434.39,424.25c-8.36-7.14-15.69-15.59-24.65-7.38l-3.64,3.34c-1.83,1.68-5.3,5.14-8.38,4.59-6.4-1.13-12.36-3.58-18.06-6.63-2.34-1.25-4.23-4-6.14-6.1l.61,5.8c-11.01-2.33-22.26-5.15-30.89-12.74-9.27-8.16-13.23-20.94-13.85-32.85-.11-2.06.53-4.1,1.51-5.52l56.12-7.32c13.88-1.81,26.82-5.49,39.79-10.21,14.24-5.18,26.49-13.02,36.99-24.18,17.63,9.3,32.98,23.48,36.1,43.75-.23,4.81.49,9.85-.32,14.44-3.44,19.55-20.63,39.02-41.28,35.27l2.08-5.92c-.22-.22-1.76.3-2.11.77-4.66,6.38-16.34,17.35-23.92,10.89Z"/>
        <path d="M425.05,77.5c-31.38-3.6-54.67-29.46-80.91-44.9,3.21,6.12,10.2,11.88,14.03,16.99l15.14,15.32-14.75,45.46c-25.25-29.88-55.08-45.29-93.56-50.59,9.28-16.93,18.96-32.28,31.25-46.21,9.09-10.31,22.21-15.88,35.93-12.66,14.57,3.42,28.79,5.55,43.71,6.84l7.43.64c17.21,1.48,27.62,3.95,39.09,17.68,6.82,8.17,12.27,16.92,15.82,26.94,2.05,5.8,4.86,18.12-1,21.93-3.5,2.28-7.94,3.04-12.17,2.56Z"/>
        <path d="M388.82,192.52c-6.33-2.13-9.95-8.04-10.59-14.65l5.6-6.2-3.72-6.56c6.59.18,10.73,5.03,11.94,10.97,1.13,5.55-.62,11.19-3.23,16.44Z"/>
      </g>
    </g>
  </g>
</svg>