<?xml version="1.0" encoding="UTF-8"?>
<svg id="Layer_1" xmlns="http://www.w3.org/2000/svg" version="1.1" viewBox="0 0 1024 1024">
  <!-- Generator: Adobe Illustrator 30.1.0, SVG Export Plug-In . SVG Version: 2.1.1 Build 136)  -->
  <defs>
    <style>
      .st0 {
        fill: #4cedc8;
      }
    </style>
  </defs>
  <path class="st0" d="M844.39,668.77c.24-26.53-16.02-48.59-42.94-50.92-22.98-1.99-48.8,14.81-48.98,40.67l-.94,141.06c-.19,28.29-26.19,48.03-52.49,45.72-26.51-2.33-45.32-24.64-44.68-52.26.26-11.31,1.3-22.73-.42-33.94-3.72-24.18-25.79-40.21-49.49-39.12-20.84.96-44.81,17.47-44.89,41.43l-.69,213.72c-.09,27.99-21.99,48.85-48.54,48.88-26.58.03-48.45-21-48.56-48.84l-.67-175.58c-.09-24.63-25.07-41.4-47.01-41.47-22.68-.07-44.3,15.83-47.31,39.6-2.17,17.08,0,33.83-.68,51.18-1.07,27.31-22.32,47.96-48.74,47.9-25.38-.06-48.53-20.27-48.45-48.09l.71-246.11c.08-27.46-12.98-50.38-40.8-55.19-24.16-4.18-50.69,11.71-55.01,38.19-1.71,10.5-.63,21.12-.49,31.85.38,28.45-21.64,50.74-48.53,50.72-28.58-.02-49.14-22.02-49.1-50.97l.23-163.05C76.27,201.73,264.33-.73,513.94,0c235.63.69,431.56,185.67,434.54,426.13l.02,263.95M318.48,293.06c-32.96,4.26-53.6,34.41-48.43,65.29,4.97,29.69,32.84,50.84,63.96,46.31,29.68-4.32,51.88-32.26,47.49-63.55-4.09-29.1-30.63-52.24-63.02-48.06h0ZM687.09,293.16c-32.8,4.73-52.61,34.97-47.7,64.8,5.03,30.58,33.4,51.05,63.57,46.75,30.88-4.4,52.63-33.05,47.83-64.4-4.47-29.18-31.6-51.78-63.7-47.16h0ZM553.49,552.99c31.27-13.32,69.28-53.99,65.53-90.25-20.3-4.19-39.83-3.02-60.53-4.03-38.28-1.87-75.21-1.98-113.42.3-14.87.89-28.95-.79-43.04,4.12-4.89,37.1,35.11,77.65,65.97,90.27,26.63,10.89,58.21,11.21,85.49-.41Z"/>
  <path class="st0" d="M948.49,589.26l-.73,227.89c-.1,29.84-23.44,52.09-51.75,52.12-28.34.03-51.66-22.4-51.78-52.08l-.72-187.22"/>
</svg>