<?xml version="1.0" encoding="UTF-8"?>
<svg id="Layer_1" xmlns="http://www.w3.org/2000/svg" version="1.1" viewBox="0 0 1024 1024">
  <!-- Generator: Adobe Illustrator 30.1.0, SVG Export Plug-In . SVG Version: 2.1.1 Build 136)  -->
  <defs>
    <style>
      .st0 {
        fill: #fff;
      }

      .st1 {
        fill: #63bfeb;
      }

      .st2 {
        fill: #4d66a5;
      }
    </style>
  </defs>
  <path class="st1" d="M699.08,972.39c-117.09,3.72-229.02,3.84-344.2.28-122.71-3.79-249.83-37.3-281.2-171.84-7.73-33.14-8.96-65.84-11.11-99.34-24.32-2.12-55.69-14.66-57.31-41.77-2.32-38.94-2.06-78.38-.52-117.35,1.21-30.85,33.89-44.31,62.51-39.76,8.3-99.84,42.03-191.88,144.13-227.63,38.73-13.56,79.28-23.03,120.97-23.76l173.63-3.03.22-78.46c-32.79-6.17-53.49-35.16-50.42-66.28,3.27-33.07,30.08-55.23,64.44-55.06,32.07.16,59.73,21.18,63.94,51.84,4.28,31.1-14.78,61.9-50.01,69.27l-.44,78.58,99.95,1.42c55.55.79,109.8,7.56,162.31,23.13,109.34,32.42,153.56,122.38,163.97,229.03,33.14-2.34,60.47,17.75,60.38,51.31l-.28,100.52c-.08,28.35-26.74,47.26-53.84,47.49-1.88,36.19-3.46,71.6-12.37,106.97-16.98,67.39-64.79,119.89-130.63,141.76-39.73,13.2-79.49,21.27-124.16,22.68ZM639.3,855.47c63.12-.07,143.75-5.24,180.8-54.77,18.84-25.19,27.54-57.75,28.31-89.45,1.48-61.46,1.82-121.25-.66-182.06-2.64-64.99-42.44-115.53-105.55-128.59-33.17-6.86-66.48-10.79-101.19-10.74l-283.62.45c-54.3.09-126.16,14.77-154.64,66.24-13.72,24.81-22.14,55.07-22.12,84.15l.12,163.31c.05,67.72,32.34,122.46,101.7,138.81,36.53,8.61,74.3,12.97,112.95,12.93l243.9-.27Z"/>
  <path class="st2" d="M846.98,295.17c72.67,42.25,104.44,119.07,113.05,207.33,33.14-2.34,60.47,17.75,60.38,51.31l-.28,100.52c-.08,28.35-26.74,47.26-53.84,47.49-1.88,36.19-3.46,71.6-12.37,106.97-16.98,67.39-64.79,119.89-130.63,141.76-39.73,13.2-79.49,21.27-124.16,22.68-117.09,3.72-229.02,3.84-344.2.28-122.71-3.79-249.83-37.3-281.2-171.84-7.73-33.14-8.96-65.84-11.11-99.34-24.32-2.12-55.69-14.66-57.31-41.77-1.26-21.19-1.76-42.52-1.71-63.84,0,0,50.25,35.24,89.15-4.12,33.01-33.41,87.92-51.05,87.92-51.05l.12,163.31c.05,67.72,32.34,122.46,101.7,138.81,36.53,8.61,74.3,12.97,112.95,12.93l243.9-.27c63.12-.07,143.75-5.24,180.8-54.77,18.84-25.19,27.54-57.75,28.31-89.45,1.48-61.46,1.82-121.25-.66-182.06-2.04-50.31-26.36-91.96-66.52-114.27,0,0,6.48-21.15,47.73-54.15,41.25-33,17.96-66.45,17.96-66.45Z"/>
  <path class="st0" d="M639.37,854.31l-243.9.27c-38.65.04-76.42-4.32-112.95-12.93-69.36-16.34-101.65-71.09-101.7-138.81l-.12-163.31c-.02-29.08,8.4-59.34,22.12-84.15,28.48-51.47,100.33-66.16,154.64-66.24l283.62-.45c34.71-.05,68.02,3.87,101.19,10.74,63.11,13.06,102.91,63.61,105.55,128.59,2.47,60.81,2.14,120.6.66,182.06-.76,31.71-9.47,64.26-28.31,89.45-37.04,49.53-117.68,54.7-180.8,54.77ZM332.49,678.31c30.66,10.2,59.38-1.41,74.48-24.87,15.37-23.9,11.81-55.25-7.38-75.55-18.83-19.93-48.31-24.28-74.29-11.66-23.07,11.21-34.32,35.41-32.7,60.3,1.41,21.56,15.31,43.61,39.89,51.79ZM744.7,628.99c3.58,3.41,17.35.87,17.97-2.76.62-3.61.56-12.5-1.95-15.76-33.46-43.4-97.96-42.57-136.3-1.56-3.34,3.58-5.27,13.26-3.55,17.52s15.82,4.74,20.01,1.13c28.87-24.91,78.63-22.52,103.83,1.43ZM534.3,762.99c52.4-5.26,76.12-56.31,56.43-62.64-5.24-1.68-16.01,2.66-19.2,7.5-21,31.8-62.73,32.78-89.55,6.5-4.07-3.99-14.34-6.23-18.68-3.82-17.63,9.79,16.66,57.91,71,52.46Z"/>
  <path class="st2" d="M332.49,678.31c-24.58-8.18-38.49-30.23-39.89-51.79-1.62-24.89,9.63-49.09,32.7-60.3,25.99-12.62,55.46-8.27,74.29,11.66,19.19,20.3,22.75,51.65,7.38,75.55-15.09,23.47-43.82,35.07-74.48,24.87Z"/>
  <path class="st2" d="M534.3,762.99c-54.34,5.46-88.63-42.67-71-52.46,4.35-2.41,14.61-.17,18.68,3.82,26.81,26.27,68.54,25.3,89.55-6.5,3.2-4.84,13.96-9.19,19.2-7.5,19.69,6.33-4.03,57.38-56.43,62.64Z"/>
  <path class="st2" d="M744.7,628.99c-25.19-23.96-74.95-26.34-103.83-1.43-4.19,3.61-18.29,3.12-20.01-1.13s.2-13.94,3.55-17.52c38.34-41.01,102.84-41.84,136.3,1.56,2.51,3.26,2.57,12.15,1.95,15.76-.62,3.63-14.38,6.17-17.97,2.76Z"/>
</svg>